<?xml version="1.0" encoding="utf-8"?>
<!-- Generator: Adobe Illustrator 19.2.1, SVG Export Plug-In . SVG Version: 6.00 Build 0)  -->
<svg version="1.1" id="Capa_1" xmlns="http://www.w3.org/2000/svg" xmlns:xlink="http://www.w3.org/1999/xlink" x="0px" y="0px"
	 viewBox="0 0 800 800" style="enable-background:new 0 0 800 800;" xml:space="preserve">
<style type="text/css">
	.st0{fill:none;stroke:#00FFFF;stroke-width:24;stroke-miterlimit:10;}
	.st1{fill:#00FFFF;}
	.st2{fill:#FFFFFF;}
</style>
<path class="st0" d="M648.7,75.7H151.5c-41.8,0-75.8,33.9-75.8,75.8v497.1c0,41.8,33.9,75.8,75.8,75.8h497.1
	c41.8,0,75.8-33.9,75.8-75.8V151.4C724.4,109.6,690.5,75.7,648.7,75.7z"/>
<path d="M648.7,76.4H151.5c-41.8,0-75.8,33.9-75.8,75.8v497.1c0,41.8,33.9,75.8,75.8,75.8h497.1c41.8,0,75.8-33.9,75.8-75.8V152.1
	C724.4,110.3,690.5,76.4,648.7,76.4z"/>
<polygon class="st1" points="543.4,646 428.1,646 257,155 495.3,155 533.4,265 410,265 "/>
</svg>
