<?xml version="1.0" encoding="utf-8"?>
<!-- Generator: Adobe Illustrator 19.2.1, SVG Export Plug-In . SVG Version: 6.00 Build 0)  -->
<svg version="1.1" id="Capa_1" xmlns="http://www.w3.org/2000/svg" xmlns:xlink="http://www.w3.org/1999/xlink" x="0px" y="0px"
	 viewBox="0 0 800 800" style="enable-background:new 0 0 800 800;" xml:space="preserve">
<style type="text/css">
	.st0{fill:none;stroke:#00FFFF;stroke-width:24;stroke-miterlimit:10;}
	.st1{fill:#00FFFF;}
	.st2{fill:#FFFFFF;}
</style>
<g>
	<polygon class="st1" points="736,479 697.5,479 640.4,315 720,315 732.7,352 691.5,352 	"/>
	<g>
		<path class="st2" d="M216.1,407.2c3.9,6,5.9,13.5,5.9,22.4c0,7.1-1.4,13.9-4.3,20.6c-3,6.3-7.3,11.8-12.9,16.3
			c-2.9,2.4-6,4.5-9.5,6.2c-3.5,1.7-7.3,3.3-11.5,4.6c-8.6,2.6-18.3,3.8-29.2,3.8c-8.9,0-17.5-1.1-25.8-3.4
			c-4.2-1.1-8.2-2.5-11.9-4.2c-3.7-1.7-7.1-3.8-10.3-6c-6.3-4.7-11.5-10.7-15.4-18c-3.8-7.2-5.6-15.9-5.4-26h34.4
			c0,5.1,1,9.8,2.9,14c1.1,1.8,2.2,3.5,3.5,5c1.3,1.5,2.7,2.9,4.4,4.1c3.3,2.4,7.1,4.1,11.3,5.2c4.8,1.2,9.3,1.8,13.6,1.8
			c1.7,0,3.3-0.1,5-0.2c1.7-0.1,3.4-0.4,5.2-0.7c1.8-0.3,3.6-0.7,5.3-1.1c1.7-0.4,3.4-1,5.1-1.8c3-1.5,5.7-3.6,7.9-6.3
			c2.1-2.8,3.2-6.1,3.2-9.9c0-4.3-1.4-7.9-4.3-10.8c-2.7-2.7-6.4-4.9-11.1-6.7c-4.7-1.9-9.8-3.5-15.4-4.7c-0.8-0.1-1.4-0.3-2-0.4
			c-0.6-0.1-1.3-0.3-2-0.5l44.5-20.1c1.7,0.9,3.4,1.9,5.2,2.9C207.9,396.9,212.5,401.6,216.1,407.2z M106.4,392.7
			c-4.5-3.3-8.1-7.6-10.9-12.9c-2.9-5.1-4.3-11.5-4.3-19c0-8.1,1.8-15.3,5.4-21.5c3.3-6,7.9-11.2,13.8-15.4c5.7-4.1,12.2-7.1,19.4-9
			c6.9-2,14.2-2.9,21.7-2.9c8.6,0,16.7,0.9,24.4,2.7c3.9,1.1,7.6,2.3,11.1,3.8c3.5,1.5,6.7,3.3,9.7,5.4c5.9,4.4,10.6,9.8,14.2,16.3
			c3.6,6.6,5.4,14.5,5.4,23.7h-34.4c-0.5-5.1-1.5-9.1-3.2-12c-1.8-3.2-4.1-5.7-7-7.5c-2.9-1.8-6.1-3.1-9.7-3.8
			c-1.8-0.3-3.7-0.6-5.8-0.8c-2-0.2-4.2-0.3-6.4-0.3c-1.4,0-2.8,0.1-4.2,0.2c-1.4,0.2-2.9,0.4-4.4,0.7c-1.4,0.3-2.7,0.7-4,1.2
			c-1.3,0.5-2.5,1.2-3.7,1.9c-2.3,1.5-4.2,3.4-5.9,5.7c-1.5,2.6-2.3,5.4-2.3,8.6c0,3,0.6,5.6,1.8,7.7c1.4,2.1,3.8,3.9,7.2,5.4
			c1.7,0.9,3.7,1.8,6.2,2.6c2.5,0.8,5.3,1.6,8.5,2.4c1.8,0.6,3.8,1.2,6,1.7c2.2,0.5,4.6,1.1,7.1,1.7l-44.5,20.1
			C113.6,397.7,109.7,395.4,106.4,392.7z"/>
		<path class="st2" d="M278.2,447.4h87.3v29.8H242.8V315.6h121v29.8h-85.5V362h78.5v27.6h-78.5v13.8h78.5v27.6h-78.5V447.4z"/>
		<path class="st2" d="M509.1,345.5h-48.6v13.8h48.6v27.6h-48.6v90.4H425v-90.4h-48.4v-27.6H425v-13.8h-48.4v-29.8h132.5V345.5z"/>
		<path class="st2" d="M668.3,477.3h-36.9l-73.5-33.5l-11.8,33.5h-35.7l61-161.7h36.4L668.3,477.3z M566.1,421l54.5,24.9l-31-90.4
			h-0.5L566.1,421z"/>
	</g>
	<g>
		<path class="st2" d="M108.6,505.2l-1.6,0.4l-0.1,0.2c-0.2-1.3-0.8-2.4-1.7-3.1c-0.9-0.8-2.1-1.1-3.4-1.1c-0.7,0-1.3,0.1-1.9,0.3
			c-0.6,0.2-1.1,0.5-1.5,0.8c-0.4,0.3-0.8,0.7-1,1.2c-0.2,0.5-0.4,1-0.4,1.6c0,0.6,0.2,1.1,0.5,1.6c0.3,0.5,0.7,0.9,1.3,1.2
			c0.5,0.3,1.1,0.6,1.8,0.9c0.2,0.1,0.8,0.3,2,0.8c0.7,0.3,1.4,0.6,2.2,0.9c0.8,0.4,1.5,0.8,2,1.2c0.6,0.5,1.1,1.1,1.5,1.7
			c0.4,0.7,0.6,1.5,0.6,2.4c0,0.9-0.2,1.6-0.5,2.3c-0.3,0.7-0.8,1.3-1.4,1.8c-0.6,0.5-1.3,0.9-2.2,1.2c-0.8,0.3-1.8,0.5-2.8,0.5
			c-1,0-2-0.2-2.8-0.5c-0.8-0.3-1.5-0.7-2.2-1.2c-0.6-0.5-1.1-1.1-1.4-1.9c-0.4-0.7-0.6-1.5-0.7-2.3l1.6-0.5
			c0.1,0.7,0.2,1.3,0.5,1.9c0.3,0.6,0.7,1.1,1.1,1.5c0.5,0.4,1.1,0.8,1.7,1c0.7,0.2,1.4,0.4,2.3,0.4c0.8,0,1.5-0.1,2.1-0.3
			c0.6-0.2,1.1-0.5,1.6-0.9c0.4-0.3,0.8-0.8,1-1.3c0.2-0.5,0.4-1.1,0.4-1.7c0-0.8-0.2-1.5-0.6-2c-0.4-0.6-0.9-1-1.5-1.4
			c-0.6-0.4-1.3-0.7-2-1c-0.5-0.2-1.2-0.5-2.2-0.9c-0.7-0.3-1.3-0.6-1.9-0.8c-0.6-0.3-1.3-0.6-1.8-1.1c-0.6-0.4-1-0.9-1.4-1.5
			c-0.4-0.6-0.5-1.3-0.5-2.2c0-0.8,0.2-1.5,0.5-2.2c0.3-0.7,0.8-1.2,1.4-1.7c0.6-0.5,1.3-0.8,2.1-1.1c0.8-0.3,1.7-0.4,2.6-0.4
			c0.9,0,1.7,0.1,2.4,0.4c0.7,0.2,1.4,0.6,2,1.1c0.6,0.5,1.1,1,1.5,1.7C108.2,503.7,108.5,504.4,108.6,505.2z"/>
		<path class="st2" d="M111.3,510.9L111.3,510.9c-0.1-1.6,0.2-3.1,0.6-4.5c0.5-1.4,1.2-2.5,2-3.5c0.9-0.9,1.9-1.7,3.1-2.2
			c1.2-0.5,2.5-0.8,3.8-0.8c1.4,0,2.6,0.3,3.8,0.8c1.2,0.5,2.2,1.3,3.1,2.2c0.9,0.9,1.5,2.1,2,3.5c0.5,1.4,0.7,2.9,0.7,4.5
			c0,1.7-0.2,3.2-0.7,4.5c-0.5,1.4-1.2,2.5-2,3.5c-0.9,0.9-1.9,1.7-3.1,2.2c-1.2,0.5-2.4,0.7-3.8,0.7c-1.3,0-2.6-0.3-3.8-0.8
			c-1.2-0.5-2.2-1.3-3-2.2c-0.8-1-1.5-2.1-2-3.5S111.3,512.6,111.3,510.9z M113.1,510.8l-0.1,0.1c0,1.4,0.2,2.7,0.6,3.9
			c0.4,1.1,0.9,2.1,1.6,2.9c0.7,0.8,1.5,1.4,2.5,1.8c1,0.4,2,0.6,3.2,0.6s2.2-0.2,3.2-0.6c1-0.4,1.8-1,2.5-1.9
			c0.7-0.8,1.2-1.8,1.6-2.9c0.4-1.2,0.6-2.4,0.6-3.8c0-1.5-0.2-2.8-0.6-3.9c-0.4-1.1-0.9-2.1-1.6-2.9c-0.7-0.8-1.5-1.4-2.5-1.8
			c-1-0.4-2-0.6-3.1-0.6c-1.1,0-2.2,0.2-3.2,0.6c-0.9,0.4-1.8,1-2.5,1.8c-0.7,0.8-1.2,1.7-1.6,2.9
			C113.3,508.1,113.1,509.3,113.1,510.8z"/>
		<path class="st2" d="M136.3,519.7h10.4v1.6h-12.1v-21h1.7V519.7z"/>
		<path class="st2" d="M163,500.3h1.7l0,13.2c0,2.7-0.7,4.8-2,6.2c-1.3,1.4-3.2,2.1-5.7,2.1c-2.5,0-4.4-0.7-5.6-2.1
			c-1.3-1.4-2-3.5-2-6.2v-13.2h1.7v13.3c0,2.2,0.5,3.9,1.5,5c1,1.1,2.5,1.7,4.4,1.7c2,0,3.5-0.6,4.4-1.7c1-1.1,1.5-2.8,1.5-5V500.3z
			"/>
		<path class="st2" d="M186.2,505.3l-1.7,0.5l-0.1,0.1c-0.6-1.4-1.5-2.4-2.7-3.2c-1.2-0.7-2.5-1.1-4-1.1c-1.1,0-2.2,0.2-3.2,0.6
			c-1,0.4-1.8,1-2.5,1.8c-0.7,0.8-1.2,1.8-1.6,2.9c-0.4,1.1-0.6,2.4-0.6,3.9c0,1.4,0.2,2.7,0.6,3.9c0.4,1.1,0.9,2.1,1.6,2.9
			c0.7,0.8,1.5,1.4,2.5,1.8c1,0.4,2,0.6,3.1,0.6c1.6,0,3-0.4,4.2-1.3c1.2-0.9,2.2-2.1,2.8-3.6l1.7,0.5c-0.7,1.9-1.8,3.4-3.4,4.5
			c-1.5,1-3.3,1.6-5.3,1.6c-1.3,0-2.6-0.3-3.8-0.8c-1.2-0.5-2.2-1.3-3-2.2c-0.8-1-1.5-2.1-2-3.5c-0.5-1.3-0.7-2.8-0.7-4.5
			s0.2-3.2,0.7-4.5c0.5-1.4,1.2-2.5,2-3.5c0.9-0.9,1.9-1.7,3.1-2.2c1.2-0.5,2.5-0.8,3.8-0.8c1.9,0,3.6,0.5,5,1.4
			C184.3,502.3,185.4,503.6,186.2,505.3z"/>
		<path class="st2" d="M191.7,521.3H190v-21h1.7V521.3z"/>
		<path class="st2" d="M195.6,510.9L195.6,510.9c-0.1-1.6,0.2-3.1,0.6-4.5s1.2-2.5,2-3.5c0.9-0.9,1.9-1.7,3.1-2.2
			c1.2-0.5,2.5-0.8,3.8-0.8c1.4,0,2.6,0.3,3.8,0.8c1.2,0.5,2.2,1.3,3.1,2.2c0.9,0.9,1.5,2.1,2,3.5c0.5,1.4,0.7,2.9,0.7,4.5
			c0,1.7-0.2,3.2-0.7,4.5c-0.5,1.4-1.2,2.5-2,3.5c-0.9,0.9-1.9,1.7-3.1,2.2c-1.2,0.5-2.4,0.7-3.8,0.7c-1.3,0-2.6-0.3-3.8-0.8
			c-1.2-0.5-2.2-1.3-3-2.2c-0.8-1-1.5-2.1-2-3.5S195.6,512.6,195.6,510.9z M197.5,510.8l-0.1,0.1c0,1.4,0.2,2.7,0.6,3.9
			c0.4,1.1,0.9,2.1,1.6,2.9c0.7,0.8,1.5,1.4,2.5,1.8c1,0.4,2,0.6,3.2,0.6s2.2-0.2,3.2-0.6c1-0.4,1.8-1,2.5-1.9
			c0.7-0.8,1.2-1.8,1.6-2.9c0.4-1.2,0.6-2.4,0.6-3.8c0-1.5-0.2-2.8-0.6-3.9c-0.4-1.1-0.9-2.1-1.6-2.9c-0.7-0.8-1.5-1.4-2.5-1.8
			c-1-0.4-2-0.6-3.1-0.6c-1.1,0-2.2,0.2-3.2,0.6c-0.9,0.4-1.8,1-2.5,1.8c-0.7,0.8-1.2,1.7-1.6,2.9
			C197.7,508.1,197.5,509.3,197.5,510.8z"/>
		<path class="st2" d="M232.4,500.3h1.7l-0.1,21h-1.6l-9.6-14.6c-1-1.5-1.6-2.4-1.7-2.6c-0.4-0.7-0.6-1-0.6-1h-0.1l0,0.4
			c0,0.1,0,0.3,0,0.5c0,0.3,0,0.5,0,0.6c0,0.5,0,1.1,0.1,1.7c0,0.4,0,1.1,0,2.1v12.8h-1.7v-21h1.6l9.6,14.5c0.9,1.3,1.4,2.1,1.7,2.6
			c0.4,0.7,0.6,1,0.7,1h0v-0.5v-1.2c0-0.7,0-1.3,0-1.7s0-1.1,0-2V500.3z"/>
		<path class="st2" d="M241.2,519.7H252v1.6h-12.5v-21h12.3v1.6h-10.6v7.4h8.4v1.6h-8.4V519.7z"/>
		<path class="st2" d="M268.4,505.2l-1.6,0.4l-0.1,0.2c-0.2-1.3-0.8-2.4-1.7-3.1c-0.9-0.8-2.1-1.1-3.4-1.1c-0.7,0-1.3,0.1-1.9,0.3
			c-0.6,0.2-1.1,0.5-1.5,0.8c-0.4,0.3-0.8,0.7-1,1.2c-0.2,0.5-0.4,1-0.4,1.6c0,0.6,0.2,1.1,0.5,1.6c0.3,0.5,0.7,0.9,1.3,1.2
			c0.5,0.3,1.1,0.6,1.8,0.9c0.2,0.1,0.8,0.3,2,0.8c0.7,0.3,1.4,0.6,2.2,0.9c0.8,0.4,1.5,0.8,2,1.2c0.6,0.5,1.1,1.1,1.5,1.7
			c0.4,0.7,0.6,1.5,0.6,2.4c0,0.9-0.2,1.6-0.5,2.3c-0.3,0.7-0.8,1.3-1.4,1.8c-0.6,0.5-1.3,0.9-2.2,1.2c-0.8,0.3-1.8,0.5-2.8,0.5
			c-1,0-2-0.2-2.8-0.5c-0.8-0.3-1.5-0.7-2.2-1.2c-0.6-0.5-1.1-1.1-1.4-1.9c-0.4-0.7-0.6-1.5-0.7-2.3l1.6-0.5
			c0.1,0.7,0.2,1.3,0.5,1.9c0.3,0.6,0.7,1.1,1.1,1.5c0.5,0.4,1.1,0.8,1.7,1c0.7,0.2,1.4,0.4,2.3,0.4c0.8,0,1.5-0.1,2.1-0.3
			c0.6-0.2,1.1-0.5,1.6-0.9c0.4-0.3,0.8-0.8,1-1.3c0.2-0.5,0.4-1.1,0.4-1.7c0-0.8-0.2-1.5-0.6-2c-0.4-0.6-0.9-1-1.5-1.4
			c-0.6-0.4-1.3-0.7-2-1c-0.5-0.2-1.2-0.5-2.2-0.9c-0.7-0.3-1.3-0.6-1.9-0.8c-0.6-0.3-1.3-0.6-1.8-1.1c-0.6-0.4-1-0.9-1.4-1.5
			c-0.4-0.6-0.5-1.3-0.5-2.2c0-0.8,0.2-1.5,0.5-2.2c0.3-0.7,0.8-1.2,1.4-1.7c0.6-0.5,1.3-0.8,2.1-1.1c0.8-0.3,1.7-0.4,2.6-0.4
			c0.9,0,1.7,0.1,2.4,0.4c0.7,0.2,1.4,0.6,2,1.1c0.6,0.5,1.1,1,1.5,1.7C268,503.7,268.3,504.4,268.4,505.2z"/>
		<path class="st1" d="M279.5,500.3h7.4h0.1c1.5,0,2.8,0.3,4,0.8c1.2,0.5,2.3,1.2,3.1,2.2c0.9,1,1.6,2.1,2,3.4
			c0.5,1.3,0.7,2.8,0.7,4.4c0,1.6-0.2,3-0.7,4.3c-0.5,1.3-1.2,2.4-2,3.3c-0.9,0.9-1.9,1.6-3.1,2.1c-1.2,0.5-2.5,0.7-3.9,0.7h-7.6
			V500.3z M281.2,519.7h6h0c1.1,0,2.2-0.2,3.2-0.6c1-0.4,1.8-1,2.5-1.7c0.7-0.7,1.2-1.7,1.6-2.8c0.4-1.1,0.6-2.3,0.6-3.7
			c0-1.4-0.2-2.7-0.6-3.8c-0.4-1.1-1-2-1.7-2.8c-0.7-0.8-1.6-1.4-2.6-1.8c-1-0.4-2.1-0.6-3.2-0.6h-5.7V519.7z"/>
		<path class="st1" d="M302.5,521.3h-1.7v-21h1.7V521.3z"/>
		<path class="st1" d="M323.3,518.1L323.3,518.1l-0.1,0.2c-0.2,0.3-0.5,0.7-0.9,1.1c-0.4,0.4-0.9,0.8-1.5,1.2
			c-0.7,0.4-1.4,0.7-2.1,0.9c-0.8,0.3-1.6,0.4-2.6,0.4c-1.3,0-2.6-0.3-3.8-0.8c-1.2-0.5-2.2-1.2-3-2.2c-0.8-0.9-1.5-2.1-2-3.4
			c-0.5-1.4-0.7-2.9-0.7-4.5c0-1.7,0.2-3.2,0.7-4.5c0.5-1.4,1.2-2.5,2-3.5c0.9-0.9,1.9-1.7,3.1-2.2c1.2-0.5,2.5-0.8,3.8-0.8
			c2,0,3.7,0.5,5.1,1.5c1.4,1,2.5,2.3,3.2,4l-1.7,0.5c-0.6-1.4-1.5-2.4-2.7-3.2c-1.2-0.7-2.5-1.1-4-1.1c-1.1,0-2.2,0.2-3.2,0.6
			c-0.9,0.4-1.8,1-2.5,1.8c-0.7,0.8-1.2,1.7-1.6,2.9c-0.4,1.1-0.6,2.4-0.6,3.9c0,1.4,0.2,2.7,0.6,3.9c0.4,1.1,1,2.1,1.7,2.9
			c0.7,0.8,1.5,1.4,2.5,1.8c1,0.4,2,0.6,3.2,0.6c0.9,0,1.8-0.1,2.6-0.4c0.8-0.3,1.5-0.6,2.1-1.1c0.6-0.4,1.1-0.9,1.5-1.4
			c0.4-0.5,0.7-1,0.9-1.5v-3.6h-5.9v-1.5h7.4v10.7h-1.5v-2.6V518.1z"/>
		<path class="st1" d="M330.9,521.3h-1.7v-21h1.7V521.3z"/>
		<path class="st1" d="M334.3,500.3h14.9v1.6h-6.6v19.4h-1.7v-19.4h-6.6V500.3z"/>
		<path class="st1" d="M367,521.3l-2.4-6.1h-9.9l-2.4,6.1h-1.8l8.3-21h1.6l8.3,21H367z M355.4,513.7h8.7l-3.5-9
			c-0.1-0.3-0.3-0.8-0.5-1.6c-0.2-0.5-0.3-0.7-0.3-0.7h0c0,0-0.1,0.2-0.3,0.7c-0.3,0.8-0.4,1.4-0.5,1.6L355.4,513.7z"/>
		<path class="st1" d="M374,519.7h10.4v1.6h-12.1v-21h1.7V519.7z"/>
		<path class="st1" d="M389.5,519.7h10.8v1.6h-12.5v-21h12.3v1.6h-10.6v7.4h8.4v1.6h-8.4V519.7z"/>
		<path class="st1" d="M416.7,505.2l-1.6,0.4l-0.1,0.2c-0.2-1.3-0.8-2.4-1.7-3.1c-0.9-0.8-2.1-1.1-3.4-1.1c-0.7,0-1.3,0.1-1.9,0.3
			c-0.6,0.2-1.1,0.5-1.5,0.8c-0.4,0.3-0.8,0.7-1,1.2c-0.2,0.5-0.4,1-0.4,1.6c0,0.6,0.2,1.1,0.5,1.6c0.3,0.5,0.7,0.9,1.3,1.2
			c0.5,0.3,1.1,0.6,1.8,0.9c0.2,0.1,0.8,0.3,2,0.8c0.7,0.3,1.4,0.6,2.2,0.9c0.8,0.4,1.5,0.8,2,1.2c0.6,0.5,1.1,1.1,1.5,1.7
			c0.4,0.7,0.6,1.5,0.6,2.4c0,0.9-0.2,1.6-0.5,2.3c-0.3,0.7-0.8,1.3-1.4,1.8c-0.6,0.5-1.3,0.9-2.2,1.2c-0.8,0.3-1.8,0.5-2.8,0.5
			c-1,0-2-0.2-2.8-0.5c-0.8-0.3-1.5-0.7-2.2-1.2c-0.6-0.5-1.1-1.1-1.4-1.9c-0.4-0.7-0.6-1.5-0.7-2.3l1.6-0.5
			c0.1,0.7,0.2,1.3,0.5,1.9c0.3,0.6,0.7,1.1,1.1,1.5c0.5,0.4,1.1,0.8,1.7,1c0.7,0.2,1.4,0.4,2.3,0.4c0.8,0,1.5-0.1,2.1-0.3
			c0.6-0.2,1.1-0.5,1.6-0.9c0.4-0.3,0.8-0.8,1-1.3c0.2-0.5,0.4-1.1,0.4-1.7c0-0.8-0.2-1.5-0.6-2c-0.4-0.6-0.9-1-1.5-1.4
			c-0.6-0.4-1.3-0.7-2-1c-0.5-0.2-1.2-0.5-2.2-0.9c-0.7-0.3-1.3-0.6-1.9-0.8c-0.6-0.3-1.3-0.6-1.8-1.1c-0.6-0.4-1-0.9-1.4-1.5
			c-0.4-0.6-0.5-1.3-0.5-2.2c0-0.8,0.2-1.5,0.5-2.2c0.3-0.7,0.8-1.2,1.4-1.7c0.6-0.5,1.3-0.8,2.1-1.1c0.8-0.3,1.7-0.4,2.6-0.4
			c0.9,0,1.7,0.1,2.4,0.4c0.7,0.2,1.4,0.6,2,1.1c0.6,0.5,1.1,1,1.5,1.7C416.3,503.7,416.5,504.4,416.7,505.2z"/>
	</g>
</g>
</svg>
